#N canvas 173 -20 1920 1016 12;
#X msg 481 516 all \$1;
#X obj 637 514 vowel;
#X obj 440 294 expr fmod(5 - (100 - $f1)/50 \, 5);
#X obj 465 402 expr (cos(3.14159 * fmod($f1 \, 1)) + 1)/ 2 \; floor($f1) \; fmod(floor($f1) + 1 \, 5);
#X obj 438 204 inlet;
#X obj 553 514 vowel;
#X obj 482 553 clone vowel-combine 5;
#X obj 482 577 outlet;
#X connect 0 0 6 0;
#X connect 1 0 6 2;
#X connect 2 0 3 0;
#X connect 3 0 0 0;
#X connect 3 1 5 0;
#X connect 3 2 1 0;
#X connect 4 0 2 0;
#X connect 5 0 6 1;
#X connect 6 0 7 0;
