#N canvas -21 -27 1920 1016 12;
#X obj 15 365 *~;
#X obj 15 59 inlet~;
#X obj 15 389 outlet~;
#X obj 41 90 inlet;
#X obj 103 268 inlet;
#X obj 221 264 inlet;
#X obj 216 296 dB-to-amplitude;
#X obj 41 114 unpack f f f;
#X obj 110 223 line 1;
#X obj 184 222 line 1;
#X obj 15 301 vcf~, f 8;
#X msg 110 199 \$1 150;
#X msg 184 198 \$1 150;
#X obj 42 217 vline~;
#X msg 42 193 \$1 150;
#X text 361 69 Takes a signal and applies a formant filter to it;
#X text 363 103 Inlet 1: Audio;
#X text 367 178 Use [clone formant~ n] to apply n formants to a signal;
#X text 363 122 Inlet 2: list containing [formant frequency (Hz)] [bandwidth (Hz)] [amplitude (dB)];
#X connect 0 0 2 0;
#X connect 1 0 10 0;
#X connect 3 0 7 0;
#X connect 4 0 10 2;
#X connect 5 0 6 0;
#X connect 6 0 0 1;
#X connect 7 0 14 0;
#X connect 7 1 11 0;
#X connect 7 2 12 0;
#X connect 8 0 10 2;
#X connect 9 0 6 0;
#X connect 10 0 0 0;
#X connect 11 0 8 0;
#X connect 12 0 9 0;
#X connect 13 0 10 1;
#X connect 14 0 13 0;
