#N canvas 154 -26 1920 1016 12;
#X floatatom 99 143 5 0 0 0 - - - 0;
#X floatatom 99 186 5 0 0 0 - - - 0;
#X floatatom 99 235 5 0 0 0 - - - 0;
#X floatatom 99 286 5 0 0 0 - - - 0;
#X obj 174 141 s pitch;
#X obj 177 188 s frequency;
#X obj 180 322 s formant;
#X obj 180 298 float-to-formants;
#X obj 382 161 vocalise-receiver;
#X text 97 104 Manual testing for [vocalise-receiver];
#X obj 178 236 s loudness;
#X connect 0 0 4 0;
#X connect 1 0 5 0;
#X connect 2 0 10 0;
#X connect 3 0 7 0;
#X connect 7 0 6 0;
