#N canvas 373 53 1920 1016 12;
#X obj 193 300 triangle~;
#X obj 128 299 phasor~;
#X obj 152 214 inlet;
#X obj 193 384 *~;
#X obj 300 297 f \$1;
#X obj 322 324 expr 1 - $f1;
#X obj 128 383 *~;
#X obj 322 257 loadbang;
#X obj 265 254 inlet;
#X obj 144 597 outlet~;
#X obj 272 448 hip~;
#X obj 272 472 *~;
#X obj 135 487 *~;
#X obj 296 394 * 1.5;
#X text 477 76 Vocal source synthesiser;
#X text 486 100 Inlet 1: Fundamental frequency;
#X text 489 123 Inlet 2: (float) Proportional mix for sawtooth and triangle waves (0-1) where 0 is all triangle and 1 is all sawtooth;
#X connect 0 0 3 0;
#X connect 1 0 6 0;
#X connect 2 0 1 0;
#X connect 2 0 13 0;
#X connect 2 0 0 0;
#X connect 3 0 10 0;
#X connect 3 0 12 0;
#X connect 4 0 5 0;
#X connect 4 0 6 1;
#X connect 5 0 3 1;
#X connect 6 0 10 0;
#X connect 6 0 12 0;
#X connect 7 0 4 0;
#X connect 8 0 4 0;
#X connect 10 0 11 0;
#X connect 11 0 9 0;
#X connect 12 0 9 0;
#X connect 13 0 10 1;
