#N canvas 499 390 450 300 12;
#X obj 65 19 inlet;
#X obj 130 171 outlet~;
#X obj 24 95 sing-voice 0.3;
#X obj 65 43 route frequency velocity;
#X obj 129 136 *~;
#X text 137 96 <- put synthesiser here;
#X connect 0 0 3 0;
#X connect 2 0 4 0;
#X connect 3 0 2 0;
#X connect 3 1 4 1;
#X connect 4 0 1 0;
