#N canvas 499 390 450 300 12;
#X obj 65 19 inlet;
#X obj 130 171 outlet~;
#X obj 65 43 route frequency velocity;
#X obj 129 136 *~;
#X text 137 96 <- put synthesiser here;
#X obj 24 95 phasor~;
#X connect 0 0 2 0;
#X connect 2 0 5 0;
#X connect 2 1 3 1;
#X connect 3 0 1 0;
#X connect 5 0 3 0;
