#N canvas 332 -37 1920 944 12;
#X obj 124 225 inlet;
#X obj 123 330 outlet~;
#X obj 178 224 inlet;
#X text 401 203 Arguments to blocks: https://hvc.berlin/Puredata/patches-and-subpatches-in-pure-data/#:~:text=Arguments%20are%20passed%20to%20objects%20after%20the%20name%2C \, object%27s%20creation%2C%20thus%20printing%20both%20arguments%20on%20start.;
#X obj 124 258 phasor~ \$1;
#X obj 123 306 expr~ (max($v1 \, 1-$v1) -0.75)*4;
#X connect 0 0 4 0;
#X connect 2 0 4 1;
#X connect 4 0 5 0;
#X connect 5 0 1 0;
