#N canvas 259 -19 1920 1016 12;
#X text 646 94 More optional inputs relating to timbre;
#X obj 77 231 mtof;
#X obj 77 356 source~;
#X obj 77 207 r pitch;
#X obj 201 208 r frequency;
#X obj 541 214 r formant;
#X obj 439 313 clone formant~ 5;
#X obj 63 443 s~ source;
#X obj 440 213 r~ source;
#X obj 439 388 dac~;
#X text 648 48 Receive inputs: Pitch \, velocity \, formant list [index \, central frequency \, bandwidth \, amplitude];
#X msg 76 279 frequency \$1;
#X msg 309 233 velocity \$1;
#X obj 637 214 r vowel;
#X obj 640 250 float-to-formants;
#X obj 310 204 r loudness;
#X obj 44 511 print pitch;
#X obj 189 499 print frequency;
#X obj 340 473 print loudness;
#X obj 486 471 print vowel;
#X obj 33 481 s pitch-in;
#X obj 216 466 s frequency-in;
#X obj 359 446 s loudness-in;
#X obj 537 438 s vowel-in;
#X obj 146 413 *~;
#X obj 133 477 dac~;
#X obj 673 338 print formant-list;
#X obj 1050 458 *~;
#X obj 1046 507 dac~;
#X obj 987 335 r frequency;
#X obj 1105 325 r loudness;
#X obj 1095 401 *;
#X obj 1125 369 t b f;
#X obj 1194 341 r toggle;
#X obj 1145 422 print test;
#X obj 152 362 osc~;
#X obj 584 622 triangle~;
#X obj 987 359 triangle~;
#X connect 1 0 11 0;
#X connect 1 0 35 0;
#X connect 1 0 36 0;
#X connect 3 0 1 0;
#X connect 3 0 16 0;
#X connect 3 0 20 0;
#X connect 4 0 11 0;
#X connect 4 0 17 0;
#X connect 4 0 21 0;
#X connect 4 0 35 0;
#X connect 4 0 36 0;
#X connect 5 0 6 1;
#X connect 6 0 9 0;
#X connect 6 0 9 1;
#X connect 8 0 6 0;
#X connect 11 0 2 0;
#X connect 12 0 2 0;
#X connect 13 0 14 0;
#X connect 13 0 19 0;
#X connect 13 0 23 0;
#X connect 14 0 6 1;
#X connect 14 0 26 0;
#X connect 15 0 12 0;
#X connect 15 0 18 0;
#X connect 15 0 22 0;
#X connect 15 0 24 1;
#X connect 24 0 25 0;
#X connect 24 0 25 1;
#X connect 27 0 28 0;
#X connect 27 0 28 1;
#X connect 29 0 37 0;
#X connect 30 0 31 0;
#X connect 31 0 27 1;
#X connect 31 0 34 0;
#X connect 32 0 31 0;
#X connect 32 1 31 1;
#X connect 33 0 32 0;
#X connect 36 0 24 0;
#X connect 37 0 27 0;
