#N canvas 951 0 956 1003 12;
#X text 646 94 More optional inputs relating to timbre;
#X obj 77 231 mtof;
#X obj 77 356 source~;
#X obj 77 207 r pitch;
#X obj 201 208 r frequency;
#X obj 541 214 r formant;
#X obj 439 313 clone formant~ 5;
#X obj 63 443 s~ source;
#X obj 440 213 r~ source;
#X obj 439 388 dac~;
#X text 648 48 Receive inputs: Pitch \, velocity \, formant list [index \, central frequency \, bandwidth \, amplitude];
#X msg 76 279 frequency \$1;
#X msg 309 233 velocity \$1;
#X obj 637 214 r vowel;
#X obj 640 250 float-to-formants;
#X obj 310 204 r loudness;
#X obj 1050 458 *~;
#X obj 1046 507 dac~;
#X obj 987 335 r frequency;
#X obj 1095 276 r loudness;
#X obj 1095 401 *;
#X obj 1125 369 t b f;
#X obj 1193 321 r toggle;
#X obj 1145 422 print test;
#X floatatom 1095 300 5 0 0 0 - - - 0;
#X obj 1193 345 tgl 19 0 empty empty empty 0 -10 0 12 #fcfcfc #000000 #000000 0 1;
#X obj 987 359 sing-voice 0.3;
#X connect 1 0 11 0;
#X connect 2 0 7 0;
#X connect 3 0 1 0;
#X connect 4 0 11 0;
#X connect 5 0 6 1;
#X connect 6 0 9 0;
#X connect 6 0 9 1;
#X connect 8 0 6 0;
#X connect 11 0 2 0;
#X connect 12 0 2 0;
#X connect 13 0 14 0;
#X connect 14 0 6 1;
#X connect 15 0 12 0;
#X connect 16 0 17 0;
#X connect 16 0 17 1;
#X connect 18 0 26 0;
#X connect 19 0 24 0;
#X connect 20 0 16 1;
#X connect 20 0 23 0;
#X connect 21 0 20 0;
#X connect 21 1 20 1;
#X connect 22 0 25 0;
#X connect 24 0 20 0;
#X connect 25 0 21 0;
#X connect 26 0 16 0;
