#N canvas 1113 -20 1920 1016 12;
#X text 646 94 More optional inputs relating to timbre;
#X obj 77 231 mtof;
#X obj 77 356 source~;
#X obj 77 207 r pitch;
#X obj 201 208 r frequency;
#X obj 541 214 r formant;
#X obj 439 286 clone formant~ 5;
#X obj 77 399 s~ source;
#X obj 440 213 r~ source;
#X obj 439 388 dac~;
#X text 648 48 Receive inputs: Pitch \, velocity \, formant list [index \, central frequency \, bandwidth \, amplitude];
#X msg 76 279 frequency \$1;
#X obj 309 209 r velocity;
#X msg 309 233 velocity \$1;
#X connect 1 0 11 0;
#X connect 2 0 7 0;
#X connect 3 0 1 0;
#X connect 4 0 11 0;
#X connect 5 0 6 1;
#X connect 6 0 9 0;
#X connect 6 0 9 1;
#X connect 8 0 6 0;
#X connect 11 0 2 0;
#X connect 12 0 13 0;
#X connect 13 0 2 0;
