#N canvas 934 -14 1920 944 12;
#X obj 83 71 inlet;
#X msg 38 173 0 650 80 0 \, 1 1080 90 -6 \, 2 2650 120 -7 \, 3 2900 130 -8 \, 4 3250 140 -22, f 16;
#X msg 210 178 0 400 70 0 \, 1 1780 80 -14 \, 2 2600 100 -12 \, 3 3200 120 -14 \, 4 3580 120 -20, f 15;
#X msg 731 174 0 400 40 0 \, 1 800 80 -10 \, 2 2600 100 -21 \, 3 2800 120 -12 \, 4 3000 -120 -26, f 15;
#X msg 541 184 0 350 40 0 \, 1 600 60 -20 \, 2 2700 100 -17 \, 3 2900 120 -14 \, 4 3300 120 -26, f 18;
#X obj 83 95 sel 0 1 2 3 4;
#X text 71 138 "a";
#X text 410 155 "i";
#X text 597 159 "u";
#X text 251 149 "e";
#X text 765 140 "o";
#X obj 125 418 outlet;
#X obj 323 398 outlet;
#X msg 121 258 "a";
#X msg 454 269 "i";
#X msg 635 267 "u";
#X msg 303 268 "e";
#X msg 828 263 "o";
#X text 238 73 list of the filter parameters for different vowel sounds;
#X msg 375 182 0 290 40 -2 \, 1 1870 90 -10 \, 2 2800 100 -8 \, 3 3250 120 -24 \, 4 3540 120 -30, f 15;
#X connect 0 0 5 0;
#X connect 1 0 13 0;
#X connect 1 0 11 0;
#X connect 2 0 16 0;
#X connect 2 0 11 0;
#X connect 3 0 17 0;
#X connect 3 0 11 0;
#X connect 4 0 15 0;
#X connect 4 0 11 0;
#X connect 5 0 1 0;
#X connect 5 1 2 0;
#X connect 5 2 19 0;
#X connect 5 3 4 0;
#X connect 5 4 3 0;
#X connect 13 0 12 0;
#X connect 14 0 12 0;
#X connect 15 0 12 0;
#X connect 16 0 12 0;
#X connect 17 0 12 0;
#X connect 19 0 14 0;
#X connect 19 0 11 0;
