#N canvas -9 0 956 931 12;
#X obj 436 109 inlet;
#X obj 436 133 unpack f f f;
#X obj 589 104 inlet;
#X obj 589 128 unpack f f f;
#X obj 400 237 expr $f2 * $f1 + $f5 * (1-$f1) \; $f3 * $f1 + $f6 * (1-$f1) \; $f4 * $f1 + $f7 * (1-$f1);
#X obj 333 111 inlet;
#X obj 400 289 pack f f f;
#X obj 400 313 outlet;
#X connect 0 0 1 0;
#X connect 1 0 4 1;
#X connect 1 1 4 2;
#X connect 1 2 4 3;
#X connect 2 0 3 0;
#X connect 3 0 4 4;
#X connect 3 1 4 5;
#X connect 3 2 4 6;
#X connect 4 0 6 0;
#X connect 4 1 6 1;
#X connect 4 2 6 2;
#X connect 5 0 4 0;
#X connect 6 0 7 0;
